<?xml version="1.0" encoding="utf-8"?>
<!-- Generator: Adobe Illustrator 23.0.0, SVG Export Plug-In . SVG Version: 6.00 Build 0)  -->
<svg version="1.1" id="Layer_1" xmlns="http://www.w3.org/2000/svg" xmlns:xlink="http://www.w3.org/1999/xlink" x="0px" y="0px"
	 viewBox="0 0 1000 568" style="enable-background:new 0 0 1000 568;" xml:space="preserve">
<title>music note</title>
<path d="M966.7,164.3c-0.4-4-1.4-8-2.8-11.8c-3.1-7.5-7.2-14.4-12.4-20.7c-5.1-6.2-11-11.8-17.4-16.8c-12.7-9.9-27.2-17.4-42-23.3
	L881,87.5l-2.8-1.1c-0.9-0.3-1.9-0.6-2.8-0.9l-5.7-1.8l-5.7-1.8c-1.9-0.6-3.8-1.2-5.8-1.7l-11.6-3c-3.9-1.1-7.8-1.7-11.8-2.5
	l-5.9-1.1l-3-0.6l-3-0.4L811,71c-2-0.3-4-0.5-6-0.6l-6-0.5c-8-0.8-16-0.9-24-1.2c-4-0.1-8,0.1-12,0.1l-6,0.1c-2,0.1-4,0.2-6,0.3
	L739,70l-11.9,1.3c-2,0.2-4,0.4-6,0.7l-5.9,0.9c-4,0.6-7.9,1.1-11.9,1.8c-7.8,1.5-15.8,2.7-23.5,4.5c-3.9,0.9-7.8,1.6-11.7,2.6
	l-11.6,2.9c-30.9,7.8-61.2,17.8-90.9,28.7c-27.6,10.1-54.8,20.9-82,31.4l-0.6-0.4c-8.8-6.5-16.6-13.2-18.2-24.9
	c-0.1-0.8-2.1-1.9-3.2-1.9c-0.7,0-1.9,1.6-2.1,2.6c-0.1,1.5,0,3,0.3,4.5l3,28.1c-9.8,3.8-19.7,7.6-29.6,11.3
	c-14.7,5.4-29.4,10.7-44.3,15.5s-29.7,9.2-44.9,13.1c-4.1,1.1-8.2,2.1-12.3,3.1c0.9-3.8,1.7-7.5,2.4-11.4c1.6-8.9,2.4-17.9,2.6-26.9
	c4.5-1.5,9-3,13.4-4.6c13.2-4.7,26.2-9.6,39.3-14.6c52-20.2,102.8-42.8,154.4-61.9s104.4-35,158.8-41.3c13.6-1.5,27.2-2.6,40.9-3
	c13.7-0.3,27.4,0,41.1,0.9c13.7,1.1,27.4,2.9,40.9,5.4c6.7,1.5,13.5,2.7,20.2,4.6c6.8,1.5,13.3,3.8,20,5.7c-6.3-3-12.6-6-19.2-8.5
	c-6.5-2.7-13.2-4.8-19.8-7c-13.5-4-27.2-7.2-41.1-9.6c-14-2.2-28-3.6-42.1-4.2c-14.1-0.5-28.3-0.3-42.4,0.6s-28.2,2.6-42.1,4.8
	s-27.8,5.2-41.5,8.4s-27.2,7.3-40.7,11.4s-26.7,8.9-39.8,13.7c-52.6,19.5-103,43.4-153.6,66.1c-15.7,7.1-31.4,14-47.3,20.7
	c-1.1-15.6-5.2-30.8-12-44.9c-4.8-9.9-11.1-18.8-20.5-24.9c-11.5-7.6-23.1-5.9-31,5.2c-3.9,5.6-7,11.8-9,18.4
	c-7.9,24.9-7.4,49.8,0.6,74.3c-11.8,4.1-23.6,8-35.6,11.6c6.9-1.1,13.8-2.2,20.6-3.5c5.6-1,11.1-2.3,16.6-3.5l0.1,0.4
	c3.6,9.8,7.7,19.5,11.8,29.1c-23.6,4.2-47.5,6.8-71.4,7.6c-15.4,0.5-30.8,0-46.2-1.3c-15.3-1.3-30.4-3.6-45.3-7
	c-14.7-3.5-29-8.5-41.5-15.8c-6.1-3.5-11.8-7.9-16.7-13c-4.7-4.9-8.5-10.7-11.1-17c-2.5-6.4-3.9-13.1-4-20c-0.1-7,1-13.9,3.3-20.5
	c2.2-6.6,5.6-12.8,9.9-18.3c2.2-2.8,4.6-5.4,7.2-7.7c2.7-2.3,5.5-4.5,8.5-6.4C82.6,80,97.2,75.1,112,71.7
	c14.9-3.2,30.1-4.7,45.4-4.5c7.6,0.1,15.1,0.7,22.6,1.9c7.4,1.1,14.7,3,21.8,5.6c6.9,2.5,13.5,6,19.4,10.4
	c5.8,4.4,10.6,9.9,14.3,16.1c1.8,3.1,3.3,6.4,4.4,9.8c1,3.3,1.4,6.7,1.3,10.2c-0.3,6.8-3.6,13.2-8.7,18.4s-11.6,9.2-18.5,12.3
	c-7,3.1-14.4,5.3-21.9,6.6c-7.6,1.3-15.3,1.7-23,1.1c-7.7-0.6-15.3-2.1-22-5.8c-3.4-1.8-6.3-4.2-8.8-7.1c-2.4-3-4.1-6.5-5-10.2
	c-1-3.7-1-7.7-0.2-11.4c0.9-3.8,3.1-7.2,6.2-9.7c-3.3,2.3-5.7,5.6-6.9,9.5c-1.1,3.9-1.3,8-0.5,12c0.7,4,2.3,7.8,4.7,11.2
	c2.4,3.3,5.5,6.1,9.1,8.2c7,4.3,15.1,6.3,23.1,7.4c8,1.1,16.1,1.1,24.2,0.1c8.1-1,16-2.9,23.6-5.9c7.6-3,15-7.1,21.2-13
	c3.2-3,5.9-6.5,8-10.3c2.1-4,3.5-8.3,3.9-12.8c0.4-4.4,0.1-8.9-1-13.2c-1.1-4.2-2.7-8.2-4.7-12c-0.4-1-1-1.9-1.6-2.8
	s-1.1-1.9-1.7-2.7c-1.3-1.7-2.4-3.5-3.9-5.1c-2.7-3.3-5.8-6.3-9.1-9c-6.6-5.3-13.9-9.5-21.7-12.7c-7.7-3.1-15.6-5.5-23.7-7
	c-8-1.5-16.2-2.5-24.3-2.9c-16.3-0.8-32.6,0.4-48.7,3.5c-4,0.8-8,1.7-12,2.8s-7.9,2.2-11.8,3.6c-8,2.7-15.7,6.3-22.9,10.7
	c-3.7,2.3-7.2,4.8-10.5,7.5c-3.4,2.9-6.5,6-9.3,9.3c-11.4,13.7-17.6,30.9-17.7,48.7c0,8.9,1.7,17.8,4.8,26.1
	c3.3,8.3,8.1,16,14.2,22.5c5.9,6.4,12.7,11.8,20.2,16.3c14.6,8.9,30.4,14.5,46.2,18.5c15.8,3.9,31.8,6.5,48,7.9
	c16.1,1.5,32.2,2,48.3,1.6c25.6-0.8,51.1-3.4,76.3-7.9c-0.3,0.6-0.6,1.1-0.9,1.6c-7.7,11-15.4,22.2-22.5,33.6
	c-4.7,7.5-8.9,15.3-12.6,23.4c-14.9,2.7-30,4.7-45.1,6c-36.2,3.3-73,2.1-109.1-4.9c35.1,11.2,72.5,15,109.6,14.3
	c13.2-0.3,26.4-1.3,39.5-2.7c-2.4,6.7-4.3,13.7-5.7,20.7c-2.9,15-3.5,29.6-0.8,43.8c-3,0.5-5.9,1.1-8.9,1.6
	c-21.9,3.6-44.1,5-66.2,4.1c-22-1.2-44-5.3-64.6-13.1c-10.3-3.9-20.1-9-29.2-15.2c-9.1-6.2-17.1-13.9-23.6-22.7
	c-6.6-8.9-11.4-19.1-14-29.9c-2.7-10.9-2.7-22.4,0-33.3c-3.9,10.7-4.6,22.5-2.8,33.9c1.9,11.5,6.1,22.5,12.4,32.3
	c6.3,9.9,14.3,18.5,23.6,25.7c9.2,7.1,19.3,13.2,30,17.9c21.4,9.3,44.2,14.6,67.3,17c2.9,0.3,5.8,0.4,8.7,0.6s5.8,0.5,8.7,0.4
	c5.8,0.1,11.6,0.2,17.4-0.1c2.9-0.1,5.8-0.2,8.7-0.3l8.6-0.6l4.3-0.3l4.3-0.5l8.6-1c3.6-0.5,7.3-1,10.9-1.5c2,5.4,4.6,10.7,7.6,15.7
	c10.1,16.7,25.5,29.8,43.2,38c-66.9,15-136,17.4-203.8,7.1c74.4,18.7,154,18.9,229.6,1.2c14.4,2.7,29.3,2.2,43.5-1.6
	c5.9-1.6,11.7-3.9,17.7-5.9c3.8,8.4,7.5,16.8,11.3,25.1c6,13,11.6,26,12.1,40.7c1.2,32.6-19.3,46.2-49,45.5c-3.3-0.1-6.6-2-9.9-3.1
	l0.5-1.4c1.1-0.3,2.3-0.5,3.4-0.7c12-3.2,20.6-13.8,21.3-26.3c0.7-12.8-7-24.7-19-29.2c-11.7-4.3-24.9-0.5-32.3,9.5
	c-7.7,10-7.8,23.3-0.4,35.8c13.4,22.4,39.9,30.9,64.3,20.8c18.4-7.6,29.7-20.8,32.4-40.7c1.8-13.1-0.7-25.6-5.7-37.6
	c-5.8-13.8-12.2-27.4-18.4-41.1c-0.8-1.8-1.4-3.1,0.6-4.6c4.6-3.5,8.7-7.7,12.1-12.4c18.5-7.4,36.7-15.3,54.8-23.3
	c19.2-8.4,38.2-16.9,57.4-24.7s38.5-15.2,58.2-21.1c2.4-0.8,4.9-1.5,7.4-2.2l7.4-2.1c4.9-1.5,9.9-2.5,14.9-3.7l7.5-1.7l7.6-1.5
	c5.1-1,10.2-2,15.3-3c20.4-3.9,40.9-7.1,61.4-9.6c41-5,82.5-6.8,123.2-1.9c2.5,0.3,5.1,0.5,7.6,1l7.6,1.3c2.5,0.5,5.1,0.8,7.5,1.3
	l7.5,1.6c9.8,1.9,19.3,5,28.3,9.1c4.3,2.1,8.3,4.6,12.1,7.6c0.9,0.7,1.8,1.5,2.6,2.3s1.7,1.6,2.4,2.5l1.2,1.3c0.4,0.4,0.7,0.9,1,1.4
	c0.6,0.9,1.4,1.8,2,2.8c2.4,4,4.1,8.3,5,12.8c0.9,4.6,1.2,9.4,0.7,14.1c-0.4,4.8-1.6,9.5-3.4,13.9c-1.8,4.5-4.3,8.6-7.5,12.2
	c-1.6,1.8-3.3,3.5-5.2,5c-1.9,1.4-4,2.7-6.1,3.7c-1.1,0.6-2.2,1.1-3.3,1.4c-1.2,0.4-2.3,0.8-3.4,1.2l-3.6,0.8
	c-1.2,0.2-2.4,0.4-3.7,0.5c-10.1,0.8-20.2-1.7-28.8-7c-4.4-2.6-8.3-6-11.6-9.9c-3.2-4.1-5.7-8.7-7.3-13.6c1.1,5.2,3.2,10.1,6.1,14.5
	c3.1,4.4,6.9,8.3,11.2,11.5l3.3,2.3l3.6,1.9c1.2,0.6,2.4,1.2,3.7,1.7c1.2,0.6,2.5,1,3.8,1.4c5.2,1.8,10.7,2.6,16.2,2.6
	c1.4,0,2.8-0.1,4.2-0.2l4.2-0.6c1.4-0.3,2.7-0.7,4.1-1.1c1.4-0.4,2.7-0.8,4-1.4c2.6-1.1,5.1-2.4,7.5-4c2.3-1.6,4.5-3.5,6.5-5.5
	c4.1-4,7.4-8.7,9.8-13.8c2.5-5.1,4.2-10.6,5.1-16.2c0.3-1.4,0.4-2.8,0.5-4.3c0.1-1.4,0.2-2.9,0.2-4.3c0-1.4,0-2.9-0.1-4.3l-0.5-4.3
	c-0.9-5.8-2.8-11.4-5.6-16.6c-5.8-10.5-15.2-18-25-23.5c-9.8-5.1-20.1-9-30.9-11.4l-7.8-2c-2.6-0.7-5.2-1.1-7.8-1.7l-7.9-1.6
	c-2.6-0.5-5.3-0.9-7.9-1.3l-7.9-1.2c-2.7-0.4-5.3-0.6-8-0.9l-8-0.9c-2.7-0.3-5.3-0.4-8-0.6l-8-0.6c-2.7-0.1-5.3-0.2-8-0.3l-8-0.3h-8
	c-21.2,0-42.5,1.2-63.6,3.5c-21.1,2.2-42,5.4-62.8,9.1c-5.2,0.9-10.4,1.9-15.6,2.9l-7.8,1.5l-7.8,1.8c-5.2,1.2-10.5,2.3-15.6,3.8
	l-7.7,2.1c-2.6,0.7-5.2,1.4-7.7,2.2c-40.9,12.5-79.5,30.1-117.5,47.6c-12,5.5-23.9,11-35.8,16.3c5.5-18.4,6-36.7-1.7-54.5
	c5.7-1.6,11.3-3.3,17-4.9c10.9-3.2,21.8-6.7,32.7-10.5c5.4-1.8,10.8-3.8,16.2-5.8l8.1-3.1l7.9-3.1c21.1-8.4,42-16.9,63.1-25.1
	c7.4-2.9,14.8-5.8,22.2-8.6c-9.8,6.6-17.3,17.4-17.8,28.3c-0.6,10.5,6.2,18.3,16.7,17.8c5.3-0.4,10.5-1.9,15.2-4.5
	c16.2-8.7,22.5-24.9,17.2-42.4c-1-3.2-1.9-6.5-2.9-9.8c4.2-1.5,8.4-3,12.7-4.4c21.2-7.3,42.7-13.8,64.3-19
	c5.4-1.3,10.9-2.5,16.3-3.7c5.5-1,10.9-2.2,16.4-3.1s11-2,16.5-2.7l8.3-1.2l1.5-0.2l-3.1,20.3l-1,6.3c-1.5-0.8-2.4-1.2-3.3-1.6
	c-15.8-8.3-40.7-0.7-49.2,15c-5,9.2-2.2,19.2,7.4,23.3c5,2,10.3,2.8,15.7,2.5c18.3-0.9,31-12.9,33.7-30.9
	c1.8-11.8,3.6-23.6,5.4-35.4l1.1-0.1c5.1-0.6,10.2-1,15.2-1.4c13,12,15.2,26.7,9,43.3c-2.3,6.1-5.7,11.7-8.5,17.5l0.6,1.1
	c1.2-0.8,2.7-1.4,3.5-2.5c5.6-7.6,10.1-16.3,12.2-25.5c2.5-10.8,0.4-24.3-5.5-34.6c2.3-0.1,4.5-0.2,6.8-0.3c1.9-0.1,3.7-0.1,5.6-0.1
	c3,8.5,2.3,17.9-1.6,28c-2.3,6-5.7,11.7-8.6,17.5l0.6,1.1c1.2-0.8,2.7-1.4,3.5-2.5c9.8-13.2,15-27.5,12.3-44.1c1.6,0,3.2,0,4.8,0
	l8.3,0.3l4.2,0.1l4.2,0.3c22.3,1.4,44.3,5.2,65.8,11.4c10.6,3,20.8,7.2,30.5,12.5c9.7,5.2,18.4,12,25.9,20.1
	c7.5,8.1,12.5,18.2,14.4,29c0.9,5.5,1,11.1,0.3,16.6c-0.2,1.4-0.4,2.8-0.7,4.2c-0.2,1.4-0.6,2.7-1.2,3.9c-0.5,1.3-1.7,2.2-3,2.4
	c-1.4,0.3-2.8-0.4-3.4-1.7c0.2,0.7,0.6,1.3,1.3,1.7c0.7,0.4,1.4,0.5,2.1,0.5c1.5-0.2,2.9-1.1,3.6-2.4c0.7-1.3,1.3-2.6,1.6-4.1
	c0.3-1.4,0.7-2.8,1-4.2c1.2-5.7,1.6-11.5,1.1-17.2c-1-11.6-5.9-22.9-13.2-32.1s-16.3-16.9-26.2-23.1c-9.9-6.2-20.4-11.3-31.4-15.1
	c-21.9-7.4-44.5-12.4-67.5-14.8c-7-0.8-13.9-1.3-20.9-1.6c4.5-13.5,3.9-26.9-2.8-39.7c-4-7.5-8.6-14.7-13.8-21.5
	c2.1-0.1,4.3-0.2,6.4-0.3l3.4-0.1h10.1c2.2,0,4.5,0.2,6.7,0.3s4.5,0.2,6.7,0.4l6.7,0.7c2.2,0.2,4.4,0.7,6.6,1
	c4.4,0.6,8.8,1.7,13.1,2.6c8.7,2.1,17.3,4.9,25.5,8.3c2.1,0.8,4.1,1.8,6.2,2.7s4.1,1.9,6.1,2.9l6,3.1l5.9,3.3c2,1.1,3.9,2.3,5.9,3.5
	s3.9,2.4,5.8,3.6c3.8,2.5,7.6,5,11.3,7.7c7.5,5.2,14.8,10.9,22.1,16.5c-13.1-12.9-26.9-25.3-42.2-35.9l-5.8-3.9l-6-3.7
	c-2-1.3-4-2.4-6.1-3.5s-4.1-2.3-6.2-3.3c-8.4-4.2-17.2-7.7-26.1-10.6c-18.1-5.4-36.9-8.2-55.8-8.3c-4.7-0.1-9.3-0.2-14-0.1h-2
	c-3.6-5.9-5.9-12.2-4.9-19.9c0.1-0.8-1.5-2.4-2.6-2.7c-0.7-0.2-2.2,1.1-2.7,2c-0.5,1.4-0.8,2.9-0.8,4.5l-2.4,16.5
	c-4.1,0.2-8.2,0.4-12.4,0.6c-4.6,0.4-9.3,0.7-13.9,1.2c-37.1,3.5-73.7,11.1-109.5,21c-3.7,1-7.3,2.1-10.9,3.1
	c-6.4-4.2-13.2-8.1-20.1-11.4c-9.7-4.7-18.4-9.8-22.2-20.5c1.5-0.6,3-1.2,4.5-1.8c14.7-5.6,29.4-11,44.2-16c7.4-2.6,14.8-5,22.3-7.4
	c3.7-1.2,7.5-2.3,11.2-3.4s7.5-2.3,11.2-3.3l11.3-3c3.8-1,7.6-1.9,11.3-2.8c7.5-1.9,15.2-3.3,22.8-5c3.8-0.7,7.7-1.3,11.5-2l5.7-1
	c1.9-0.3,3.8-0.5,5.8-0.8l11.5-1.4l11.6-1.1c1.9-0.2,3.9-0.4,5.8-0.5l5.8-0.3c3.9-0.2,7.8-0.5,11.6-0.5c7.7,0,15.5-0.2,23.3,0.4
	l5.8,0.3c1.9,0.1,3.9,0.2,5.8,0.4l11.6,1.2l2.9,0.3l2.9,0.5l5.8,0.9l5.8,0.9c1,0.2,1.9,0.3,2.9,0.5l2.8,0.6l11.4,2.4
	c1.9,0.4,3.8,0.9,5.7,1.4l5.6,1.5l5.6,1.5c0.9,0.3,1.9,0.5,2.8,0.8l2.8,0.9l11.1,3.7c14.7,4.9,28.7,11.8,41.5,20.5
	c6.4,4.4,12.2,9.5,17.4,15.2c5.2,5.7,9.5,12.2,12.8,19.1c3.2,7,4.5,14.8,3.7,22.5c-0.4,3.9-1.6,7.6-3.6,10.9c-2,3.4-5.1,6-8.8,7.5
	c3.8-1.3,7.1-3.7,9.4-7c2.3-3.3,3.8-7.1,4.5-11.1C967.1,172.4,967.2,168.3,966.7,164.3z M473.3,198.6l-0.8-7.2
	c9.1,4.4,17.1,8.6,25.4,12.4l0.4,0.2c-7.8,3.2-15.6,6.4-23.4,9.6C474.4,208.6,473.8,203.6,473.3,198.6z M510.7,198.9
	c-7.6-5.4-16-11.2-24-17.3c-4.9-3.7-9.1-8.3-12.2-13.6l9.4-3.8l5.2-2.1c14,9.3,23.1,22.6,24.4,35.7L510.7,198.9z M348.9,211.1
	c15.4-4,30.7-8.7,45.9-13.7c23.7-7.9,47-16.6,70.1-25.7l4.7,44l-4.9,2c-16.9,6.8-33.9,13.3-51.1,19.1l-12.9,4.3l-13.2,4.3l-26.1,8.7
	c-15.2,5-30.3,9.9-45.6,14.3c-1.8-4-3.7-8-5.5-12c-1.1-2-1.1-4.5,0.1-6.5c5.6-10.6,10.6-21.6,14.8-32.8
	C333,215.3,340.9,213.2,348.9,211.1z M276.4,140.1c2.1-10.9,6.4-20.9,14.4-28.7c3.1-2.9,6.6-5.3,10.5-7c4.3-1.9,6.9-0.7,9.6,3.2
	c5.7,8.3,7.6,17.8,7.9,27.6c0.2,5.8,0,11.7-0.7,17.5c-14,5.7-28.1,11.2-42.4,16.4C274.3,159.4,274.5,149.6,276.4,140.1L276.4,140.1z
	 M276.9,175.2c11.2-2.8,22.3-5.9,33.4-9.1c2-0.6,4-1.2,6-1.9c-3.1,13.9-8.7,27.1-16.6,38.9l-1.2,0.3c-3.7,0.8-7.5,1.5-11.2,2.2
	C282.7,195.8,279.2,185.6,276.9,175.2L276.9,175.2z M302.8,264l3.2,7.1c-2.9,0.8-5.8,1.5-8.7,2.3C299.1,270.3,300.9,267.2,302.8,264
	z M312.3,285.1l8.1,18c-1.1,0.9-2.2,1.7-3.3,2.5c-14.8,11.1-24.4,25.3-27.3,43.2c-4.7,1.3-9.3,2.6-14,3.7l-8.1,2.1l-6.6,1.6
	c-0.6-11.3,2-22.6,7.4-32.6c6-11.2,12.4-22.2,18.9-33.3C295.7,288.8,304,287,312.3,285.1L312.3,285.1z M343.4,329.4
	c4.8-1.1,9.8-1.4,14.7-0.9l-1,0.3c-4.1,1.2-8.2,2.4-12.3,3.6L343.4,329.4z M265.8,378.6c-0.8-2.1-1.5-4.3-2.1-6.4
	c8.6-1.8,17.2-3.7,25.7-5.9c2.1,14.2,10.4,25.1,24.2,32.9c9.2,5.1,19.5,7.8,30,8.1c-22.6-7.7-31.2-24.2-29.6-46.6
	c0-0.3,0.1-0.6,0.1-0.9l15.3-4.4c4.3-1.2,8.5-2.4,12.8-3.6l24.5,54.9c-11.1,4.3-22.3,8.3-33.6,12c-7,2.2-14,4.3-21.1,6.2
	C288.6,416.8,273,397.5,265.8,378.6L265.8,378.6z M324.6,338.5c2.6-2.3,5.6-4.3,8.7-5.9c0.5,1,1,1.9,1.4,2.8
	C331.4,336.4,328,337.4,324.6,338.5L324.6,338.5z M397.8,380c-0.3,5.2-1.4,10.3-3.2,15.2c-6,2.6-12,5.1-18,7.5L352.2,349l9.7-2.7
	c7.4-2,14.9-4,22.3-6.1C394.3,349.6,399,363.5,397.8,380z M422,309.8c-7.3,2.3-14.7,4.5-22.1,6.6c-16.3-17.7-43.6-26.1-66.4-19
	c-2.9,0.9-4.4,0.9-5.8-2.5c-1.8-4.1-3.6-8.2-5.4-12.3c14.9-3.7,29.6-7.9,44.2-12.3l52.8-16.1c17.8-5.6,35.1-12.1,52.4-18.8l1.8,17
	l0.7,6.3c-1.7-0.4-2.6-0.5-3.6-0.7c-17.4-4-39.5,9.7-43.7,27.1c-2.2,9.2,1.8,17.3,10.2,19.9C432.1,306.6,427,308.2,422,309.8z
	 M548.6,262.6c-21.2,8.2-42.2,16.7-63.3,25l-7.9,3.1l-4,1.5c5.6-7.1,8.1-16.3,7-26.6c-1.2-10.8-2.3-21.5-3.5-32.3
	c12.8-5,25.4-10.2,38-15.4c4.8,7.4,6.3,16.5,5.2,27c-0.7,6.4-2.5,12.8-3.8,19.1l0.9,0.9c0.9-1.1,2.3-2.1,2.8-3.3
	c6.1-15.3,7.5-30.6,0.6-45.9l2.2-0.9c17-7,33.9-13.8,50.9-20.2l5.9-2.2l15.9,53c-5,1.7-9.9,3.5-14.9,5.3
	C569.9,254.5,559.3,258.5,548.6,262.6L548.6,262.6z M601.5,265.5c-1.7,0-2.7,0-3.7-0.1c-1.2,0-2.3,0-3.5,0.1
	c2.1-0.8,4.3-1.6,6.4-2.4L601.5,265.5z M763,210.5c-2.6-2.3-4.7-5.1-6.3-8.3c-1.7-3.6-2.1-7.7-2.5-11.7c-0.1-0.7-0.1-1.4-0.1-2.1
	c7.5,6.5,14.2,12.5,21,18.1c1.4,1.1,2.7,2.3,3.9,3.6C773.7,210.1,768.3,210.2,763,210.5z M791,207.8c-6.5-7.9-14-16.6-21-25.6
	c-6.2-7.9-9.8-17.5-10.3-27.5c-0.1-1.3,0-2.6,0-4.1l1.5-0.1C784.1,164.9,796,189.1,791,207.8L791,207.8z M731.4,153.7
	c7.4-1,14.9-1.9,22.4-2.6l-9.2,60.5c-1.8,0.1-3.7,0.3-5.5,0.5l-8.6,0.9c-5.7,0.5-11.4,1.5-17.1,2.2s-11.3,1.9-17,2.9
	c-5.6,1.1-11.3,2.2-16.9,3.5c-22.5,5-44.6,11.1-66.3,18.1c-4.1,1.3-8.1,2.6-12.1,4c-2.1-7.3-4.3-14.7-6.5-22
	c-2.5-8.2-5-16.5-7.7-24.6c-0.7-2.1-1.4-4.2-2.2-6.3l1.9-0.7l12.8-4.5l12.9-4.2l4.7-1.5c1.1,1.1,2.3,2.2,3.3,3.4
	c2.5,2.8,4.5,5.8,6.2,9.1c0.6,1.2,2.4,8.8,3.1,9.2c1.2,0.6,0.9,1.7,1.8,2.8c0.3,0.5,0.8,0.9,1.4,1.1c1.1,0.3,1.9,0.9,2.7,0.1
	c-0.7-10.8-4-20.3-9.9-28.3c17.3-5.2,34.8-9.8,52.4-13.8C695.7,159.4,713.5,156.1,731.4,153.7L731.4,153.7z M588.7,164.1
	c2.5,0.8,5,1.7,7.5,2.7c-5.9,1.9-11.8,3.9-17.7,5.9c-1-3.2-2-6.4-2.8-9.6C575.4,162.1,587.7,163.8,588.7,164.1z M562.8,136.3
	l11.4,38c-2.3,0.8-4.7,1.6-7,2.5c-16.3,6-32.3,12.4-48.3,18.8c-0.5-11.5-5.1-22.5-12.9-30.9c-2.1-2.3-4.4-4.6-6.7-6.8
	c20.8-8.5,41.6-16.9,62.5-25C562,134,562.4,135.1,562.8,136.3L562.8,136.3z"/>
</svg>
